<svg id="Layer_1" data-name="Layer 1" xmlns="http://www.w3.org/2000/svg" xmlns:xlink="http://www.w3.org/1999/xlink" viewBox="0 0 200 50"><defs><style>.cls-1{fill:url(#linear-gradient);}.cls-2{font-size:36px;font-family:Abel-Regular, Abel;}</style><linearGradient id="linear-gradient" x1="39.67" y1="-35.33" x2="160.33" y2="85.33" gradientUnits="userSpaceOnUse"><stop offset="0" stop-color="#ffd02a"/><stop offset="1" stop-color="#00d496"/></linearGradient></defs><title>donate_button</title><rect class="cls-1" x="1" y="1" width="198" height="48" rx="4" ry="4"/><path d="M195,2a3,3,0,0,1,3,3V45a3,3,0,0,1-3,3H5a3,3,0,0,1-3-3V5A3,3,0,0,1,5,2H195m0-2H5A5,5,0,0,0,0,5V45a5,5,0,0,0,5,5H195a5,5,0,0,0,5-5V5a5,5,0,0,0-5-5Z"/><text class="cls-2" transform="translate(52.88 34.99)">donate</text></svg>