<svg id="Layer_1" data-name="Layer 1" xmlns="http://www.w3.org/2000/svg" viewBox="0 0 200 50"><defs><style>.cls-1{fill:#fff;}.cls-2{font-size:36px;font-family:Abel-Regular, Abel;}</style></defs><title>Artboard 1</title><path class="cls-1" d="M25,49A24,24,0,0,1,25,1H175a24,24,0,0,1,0,48Z"/><path d="M175,2a23,23,0,0,1,0,46H25A23,23,0,0,1,25,2H175m0-2H25A25,25,0,0,0,0,25H0A25,25,0,0,0,25,50H175a25,25,0,0,0,25-25h0A25,25,0,0,0,175,0Z"/><text class="cls-2" transform="translate(52.88 34.99)">donate</text></svg>