<svg id="Layer_1" data-name="Layer 1" xmlns="http://www.w3.org/2000/svg" xmlns:xlink="http://www.w3.org/1999/xlink" viewBox="0 0 200 50"><defs><style>.cls-1{fill:url(#linear-gradient);}</style><linearGradient id="linear-gradient" x1="39.67" y1="-35.33" x2="160.33" y2="85.33" gradientUnits="userSpaceOnUse"><stop offset="0" stop-color="#ffd02a"/><stop offset="1" stop-color="#00d496"/></linearGradient></defs><title>donate_button</title><rect class="cls-1" x="1" y="1" width="198" height="48" rx="4" ry="4"/><path d="M195,2a3,3,0,0,1,3,3V45a3,3,0,0,1-3,3H5a3,3,0,0,1-3-3V5A3,3,0,0,1,5,2H195m0-2H5A5,5,0,0,0,0,5V45a5,5,0,0,0,5,5H195a5,5,0,0,0,5-5V5a5,5,0,0,0-5-5Z"/><path d="M66.35,35l-1.2-1.82a5.64,5.64,0,0,1-1.84,1.59,5.13,5.13,0,0,1-2.43.58h-.55a5.07,5.07,0,0,1-2-.41,5.17,5.17,0,0,1-1.69-1.13,5.28,5.28,0,0,1-1.13-1.69A5.09,5.09,0,0,1,55,30.05V21.93a5.08,5.08,0,0,1,.42-2.05,5.22,5.22,0,0,1,2.82-2.82,5.08,5.08,0,0,1,2-.42h.55a5.29,5.29,0,0,1,2.25.49,5.18,5.18,0,0,1,1.77,1.38V9.79h2.17V35ZM64.9,21.81a3.12,3.12,0,0,0-.24-1.22,3.26,3.26,0,0,0-.67-1,3.13,3.13,0,0,0-2.21-.92H60.33a3.13,3.13,0,0,0-2.21.92,3.26,3.26,0,0,0-.67,1,3.12,3.12,0,0,0-.24,1.22v8.37a3.12,3.12,0,0,0,.24,1.22,3.26,3.26,0,0,0,.67,1,3.09,3.09,0,0,0,1,.67,3.13,3.13,0,0,0,1.22.25h1.45A3.13,3.13,0,0,0,63,33.06a3.09,3.09,0,0,0,1-.67,3.26,3.26,0,0,0,.67-1,3.12,3.12,0,0,0,.24-1.22Z"/><path d="M83,32.11a5.22,5.22,0,0,1-2.82,2.82,5.09,5.09,0,0,1-2.06.41H76.68a5.07,5.07,0,0,1-2.05-.41,5.17,5.17,0,0,1-1.69-1.13,5.47,5.47,0,0,1-1.14-1.69,5.26,5.26,0,0,1-.41-2.06V21.93a5.25,5.25,0,0,1,.41-2.05,5.36,5.36,0,0,1,1.14-1.69,5.17,5.17,0,0,1,1.69-1.13,5.08,5.08,0,0,1,2.05-.42h1.44a5.09,5.09,0,0,1,2.06.42,5.28,5.28,0,0,1,1.69,1.13A5.17,5.17,0,0,1,83,19.88a5.07,5.07,0,0,1,.41,2.05v8.12A5.09,5.09,0,0,1,83,32.11Zm-1.75-10.3A3.12,3.12,0,0,0,81,20.59a3.26,3.26,0,0,0-.67-1,2.94,2.94,0,0,0-1-.67,3,3,0,0,0-1.23-.25H76.68a3.13,3.13,0,0,0-2.21.92,3.09,3.09,0,0,0-.67,1,3.13,3.13,0,0,0-.25,1.22v8.37a3.13,3.13,0,0,0,.25,1.22,3.16,3.16,0,0,0,1.66,1.66,3.13,3.13,0,0,0,1.22.25h1.44a3.18,3.18,0,0,0,1.23-.25,3.09,3.09,0,0,0,1-.67,3.26,3.26,0,0,0,.67-1,3.12,3.12,0,0,0,.24-1.22Z"/><path d="M97.6,35V21.81a3,3,0,0,0-.25-1.22,3.07,3.07,0,0,0-1.66-1.66,3,3,0,0,0-1.22-.25H93a3,3,0,0,0-1.22.25,3.07,3.07,0,0,0-1.66,1.66,3,3,0,0,0-.25,1.22V35H87.74V17h.72l1.18,1.83a5.36,5.36,0,0,1,1.85-1.59,5.2,5.2,0,0,1,2.44-.59h.54a5.13,5.13,0,0,1,2.06.42,5.39,5.39,0,0,1,1.69,1.13,5.33,5.33,0,0,1,1.13,1.69,5.25,5.25,0,0,1,.41,2.05V35Z"/><path d="M115.39,35l-1.2-1.79a5.69,5.69,0,0,1-1.84,1.56,5.13,5.13,0,0,1-2.43.58h-.54a5.12,5.12,0,0,1-2.06-.41,5.28,5.28,0,0,1-1.69-1.13,5.45,5.45,0,0,1-1.13-1.69,5.09,5.09,0,0,1-.41-2.06v-.17a5.12,5.12,0,0,1,.41-2.06A5.22,5.22,0,0,1,107.32,25a5.3,5.3,0,0,1,2.06-.41H114V21.81a3.14,3.14,0,0,0-3.13-3.13h-1.27a3.13,3.13,0,0,0-2.21.92,3.09,3.09,0,0,0-.67,1,3.13,3.13,0,0,0-.25,1.22v.65l-2.16-.35v-.18a5.08,5.08,0,0,1,.42-2.05,5.22,5.22,0,0,1,2.82-2.82,5.08,5.08,0,0,1,2-.42h1.27a5.13,5.13,0,0,1,2.06.42,5.23,5.23,0,0,1,1.68,1.13,5.36,5.36,0,0,1,1.14,1.69,5.25,5.25,0,0,1,.41,2.05V35ZM114,26.27h-4.57a3.09,3.09,0,0,0-1.22.25,3,3,0,0,0-1,.68,3.11,3.11,0,0,0-.66,1,3,3,0,0,0-.25,1.22v.76a3,3,0,0,0,.25,1.22,3.07,3.07,0,0,0,.66,1,3.14,3.14,0,0,0,1,.67,3.09,3.09,0,0,0,1.22.25h1.44a3.13,3.13,0,0,0,1.22-.25,3.09,3.09,0,0,0,1-.67,3.13,3.13,0,0,0,.92-2.21Z"/><path d="M127,35a4.6,4.6,0,0,1-1.85-.37,4.38,4.38,0,0,1-1.51-1,4.79,4.79,0,0,1-1-1.51,4.4,4.4,0,0,1-.38-1.84V19.05H119V17h3.24V12.67l2.16-.35V17H129v2.06h-4.57v11.3a2.56,2.56,0,0,0,.2,1,2.6,2.6,0,0,0,.56.82,2.42,2.42,0,0,0,.82.55,2.52,2.52,0,0,0,1,.21h2V35Z"/><path d="M144.54,32.11a5.28,5.28,0,0,1-1.13,1.69,5.17,5.17,0,0,1-1.69,1.13,5.07,5.07,0,0,1-2.05.41h-1.45a5.07,5.07,0,0,1-2.05-.41,5.17,5.17,0,0,1-1.69-1.13,5.28,5.28,0,0,1-1.13-1.69,5.09,5.09,0,0,1-.42-2.06V21.93a5.08,5.08,0,0,1,.42-2.05,5.22,5.22,0,0,1,2.82-2.82,5.08,5.08,0,0,1,2.05-.42h1.45a5.08,5.08,0,0,1,2.05.42,5.22,5.22,0,0,1,2.82,2.82,5.08,5.08,0,0,1,.42,2.05v4.24h-9.87v4a3.13,3.13,0,0,0,.25,1.22A3.16,3.16,0,0,0,137,33.06a3.13,3.13,0,0,0,1.22.25h1.45a3.13,3.13,0,0,0,1.22-.25,3.09,3.09,0,0,0,1-.67,3.26,3.26,0,0,0,.67-1,3.12,3.12,0,0,0,.24-1.22V29l2.17.35v.72A5.09,5.09,0,0,1,144.54,32.11Zm-1.75-10.3a3.12,3.12,0,0,0-.24-1.22,3.26,3.26,0,0,0-.67-1,3.13,3.13,0,0,0-2.21-.92h-1.45a3.13,3.13,0,0,0-2.21.92,3.09,3.09,0,0,0-.67,1,3.13,3.13,0,0,0-.25,1.22v2.67h7.7Z"/></svg>